<?xml version='1.0' encoding='utf-8'?>
<svg xmlns="http://www.w3.org/2000/svg" version="1.0" width="6000.000000pt" height="4000.000000pt" viewBox="0 0 6000.000000 4000.000000" preserveAspectRatio="xMidYMid meet" id="svg120"> <metadata id="metadata126"> </metadata> <defs id="defs124"/> <g id="layer2" style="display:inline"> <rect style="display:inline;opacity:1;vector-effect:none;fill:#001338;fill-opacity:1;fill-rule:evenodd;stroke:#3366cc;stroke-width:2.59370685;stroke-linecap:round;stroke-linejoin:miter;stroke-miterlimit:4;stroke-dasharray:2.59370688, 10.37482754;stroke-dashoffset:0;stroke-opacity:1;paint-order:normal" id="rect988" width="5707.2134" height="3677.0469" x="105.04061" y="182.53287"/> </g> <g id="layer1" style="display:inline"> <path d="m 2700.7867,2412.5097 c -7.9,1.5 -18.3,7.2 -25.4,13.8 -26.6,24.9 -31.3,70 -10.7,101.4 6,9.2 12.4,15.1 28.3,26.1 7,4.8 12.7,9.2 12.7,9.6 0,0.4 -5.5,1.7 -12.2,2.9 -18.9,3.4 -31.4,6.8 -40.3,11 -4.5,2.1 -8.5,4.3 -8.8,4.8 -0.4,0.5 1.9,3.2 5.1,5.9 7.7,6.5 16.5,16 23.5,25.3 6.7,8.9 18.6,31.9 21.8,42.3 1.2,4 2.3,7.4 2.4,7.6 0.1,0.1 4,-1.5 8.6,-3.7 23.7,-10.9 34.4,-13.2 65.2,-13.8 20.4,-0.5 24,-0.3 25,1 0.7,0.8 3.7,2 6.7,2.7 8.4,1.9 21.6,6.8 30.2,11.1 l 7.7,3.9 1.9,-2.7 1.9,-2.6 -3.2,-5.6 c -23,-40.6 -53.1,-68.9 -84.8,-79.7 -4,-1.3 -14.8,-3.8 -24.2,-5.5 -9.3,-1.7 -17.4,-3.5 -17.8,-3.9 -0.5,-0.4 4,-4 10,-8.1 22,-14.8 27.4,-19.8 34,-31.7 7.7,-13.8 12.1,-32.7 10.8,-46.7 -4,-42.7 -34.7,-72 -68.4,-65.4 z" id="path14" style="fill:#ffffff;fill-opacity:1;stroke-width:0.1"/> <path d="m 3443.4867,2412.5097 c -23,5.4 -41.3,27.5 -46.3,55.8 -1.5,8.3 -2.1,23.1 -0.9,23.1 0.3,0 4.8,-1.5 9.8,-3.4 13.8,-5.2 27,-7.5 46.7,-8.3 14.7,-0.5 17.4,-0.4 18.3,0.9 0.6,0.8 3.6,2.1 6.6,2.8 8.4,1.9 20.5,6.5 27.7,10.5 3.6,2 6.8,3.3 7.1,3 0.3,-0.3 0.5,-6 0.6,-12.8 0,-14.8 -2.5,-25.8 -8.8,-38.7 -5.5,-11.3 -17.9,-24.2 -27.6,-28.8 -10.6,-4.9 -23.2,-6.5 -33.2,-4.1 z" id="path16" style="fill:#ffffff;fill-opacity:1;stroke-width:0.1"/> <path d="m 1724.2867,2416.9097 c -18.7,6.6 -28.3,32.3 -20,53.5 2.7,7 5.8,10.6 9.7,11.3 4.7,0.7 16.3,5.4 21.6,8.8 l 4.5,2.7 5.9,-4.1 c 11.4,-8 16.8,-18.1 17.5,-32.9 0.5,-10.8 -1.4,-18 -7,-26.4 -8.1,-12.1 -20.5,-17.1 -32.2,-12.9 z" id="path18" style="fill:#ffffff;fill-opacity:1;stroke-width:0.1"/> <path d="m 2197.3867,2416.8097 c -11.7,4.3 -20.2,15.6 -22.8,30.1 -1.9,11.1 1.3,24.9 7.9,33.3 l 1.8,2.3 8.9,-2.6 c 8,-2.3 10.5,-2.6 22.9,-2.4 16.1,0.2 15.4,0.6 18.8,-10.4 5.8,-19.1 -2.2,-40.6 -18.1,-48.8 -5.4,-2.8 -14.1,-3.5 -19.4,-1.5 z" id="path20" style="fill:#ffffff;fill-opacity:1;stroke-width:0.1"/> <path d="m 3360.8867,2429.4097 c -9.8,4.5 -15.8,11.7 -19.4,23.3 -1.6,5.5 -1.9,8.6 -1.6,15.5 0.9,15.6 6.8,25.4 21.2,35.2 3.6,2.5 6.5,4.9 6.3,5.5 -0.2,0.5 -3.2,1.5 -6.8,2.2 -12.5,2.4 -16.5,3.6 -23.1,7 -23.6,12.3 -43.5,42.6 -54.7,83.3 -1.2,4.1 -2.1,8 -2.1,8.6 0,0.9 8.8,6.4 10.3,6.4 0.2,0 2.3,-5.5 4.6,-12.3 2.3,-6.7 6.3,-18.3 9,-25.7 l 4.8,-13.5 3.4,0.1 c 1.9,0 5.1,0.4 7.2,0.8 l 3.9,0.7 -0.4,7.5 c -0.2,4.1 -0.1,7.4 0.2,7.4 0.3,0 1.6,-3.5 2.9,-7.8 6.5,-20.3 23.8,-46.9 40.1,-61.4 5.8,-5 6,-5.4 5.1,-8.4 -0.5,-1.8 -1.2,-7.4 -1.6,-12.5 -1.2,-16.9 2.5,-38.3 9.1,-52.8 1.9,-4.1 3.4,-7.7 3.4,-8.1 0,-1.2 -7.6,-3 -12.6,-3 -2.7,0 -6.8,0.9 -9.2,2 z" id="path22" style="fill:#ffffff;fill-opacity:1;stroke-width:0.1"/> <path d="m 3079.8867,2431.5097 c -9.6,4.7 -15.4,12.6 -18.7,25.4 -2.6,10.2 -1.5,19.9 3.5,30 3.4,7.1 7.6,11.5 16.5,17.6 3.5,2.4 6.5,4.9 6.5,5.5 0,0.6 -4.2,1.8 -9.3,2.7 -5.1,0.9 -10.9,2.3 -12.8,3.1 l -3.4,1.4 -0.1,15.9 c -0.1,10 -0.7,18.2 -1.6,22.5 -0.9,3.7 -1.3,7 -1,7.3 0.3,0.3 2.4,0.5 4.7,0.5 5.8,0 19.7,2.5 28,5.1 9.2,2.8 25.4,10.9 33.4,16.7 11.7,8.6 10.9,8.3 8.3,3.9 -3.7,-6.4 -7.9,-17 -10.3,-26.3 -2.1,-7.7 -2.4,-11.3 -2.4,-27.1 v -18.2 l -7,-2 c -3.8,-1.1 -10,-2.5 -13.7,-3.2 -3.8,-0.6 -6.5,-1.5 -6.2,-2 0.3,-0.5 3.8,-3.1 7.7,-5.8 8.9,-6 14.1,-11.6 17.6,-19 2.4,-5.1 2.6,-6.7 2.6,-18.1 0,-11.6 -0.2,-12.9 -2.8,-18.4 -4.1,-8.8 -8.8,-14 -15.9,-17.5 -8.4,-4.3 -15.2,-4.3 -23.6,0 z" id="path26" style="fill:#ffffff;fill-opacity:1;stroke-width:0.1"/> <path d="m 4037.8867,2430.2097 c -14,5.6 -23.2,22.7 -21.8,40.6 1.1,14.5 8.6,26.1 23,35.2 2.5,1.6 4.6,3.4 4.6,4 0,0.7 -4.1,1.9 -9.2,2.8 -5.1,0.9 -11.2,2.4 -13.5,3.3 l -4.2,1.5 2.9,5.2 c 8.3,14.7 12.8,30.4 13.7,48.3 1.3,25 -4.2,45.9 -17,65.7 l -5.5,8.3 11.2,5.7 c 6.1,3.1 15.2,8.5 20.1,12.1 5,3.6 9.2,6.5 9.5,6.5 1.2,0 5.2,-7.6 8.5,-16.2 6.9,-17.8 17.5,-35.1 29.3,-47.9 l 6.4,-6.9 -0.3,-15.2 -0.4,-15.2 6,-1.3 c 3.3,-0.6 6.3,-1.2 6.6,-1.3 0.4,0 1.9,3.5 3.4,7.7 1.5,4.3 3,8.2 3.5,8.6 0.6,0.7 12,-4.8 12,-5.9 0,-0.2 -1.8,-4.1 -4,-8.7 -5.7,-12 -12.8,-22.5 -21.6,-31.6 -12.7,-13.4 -22.4,-18.7 -40.7,-22.2 -10.9,-2.1 -12,-2.6 -9.7,-3.9 0.8,-0.5 4.9,-3.3 9,-6.3 14.1,-10.1 19.6,-21.1 18.8,-37.9 -0.7,-13 -3.4,-19.5 -11.2,-27.4 -9.1,-9 -19.2,-11.6 -29.4,-7.6 z" id="path28" style="fill:#ffffff;fill-opacity:1;stroke-width:0.1"/> <path d="m 1872.1867,2443.3097 c -12.3,3 -21.2,13 -25.1,28.4 -3.1,12.1 0.6,27.9 8.8,37.2 2.2,2.5 4.3,4.5 4.8,4.5 0.4,0 1.3,-3.6 1.9,-7.9 2.9,-19.4 11,-36.3 26.1,-54.3 l 3.1,-3.7 -2.3,-1.5 c -2.3,-1.5 -10.1,-3.6 -12.8,-3.5 -0.8,0.1 -2.8,0.4 -4.5,0.8 z" id="path30" style="fill:#ffffff;fill-opacity:1;stroke-width:0.1"/> <path d="m 2339.1867,2444.8097 c -14.9,6.9 -23.8,26.7 -20.1,44.6 2.8,13.4 7.3,20 19.5,28.6 3.9,2.7 6.9,5.3 6.8,5.9 -0.2,0.5 -3.9,1.7 -8.3,2.6 -4.3,0.8 -10.1,2.3 -12.9,3.2 -11.7,4.1 -28.5,16.9 -28.5,21.9 0,2.3 0.8,2.8 7.8,5.3 11.1,4 25.3,11.3 36.2,18.6 9.1,6.1 27.2,23 35.6,33.2 l 4,4.7 8.9,-4.6 c 5,-2.5 9.1,-5.2 9.3,-6 0.2,-0.7 -1,-3.3 -2.7,-5.8 -10.8,-15.6 -18.1,-39.6 -18.1,-59.2 v -7.3 l -5.2,-1.5 c -2.9,-0.9 -8.3,-2 -12,-2.7 -3.8,-0.6 -6.8,-1.4 -6.8,-1.8 0,-0.3 4.1,-3.4 9,-6.8 12.9,-9.1 18.5,-18.3 19.7,-32.5 2.4,-28.3 -20.7,-50.5 -42.2,-40.4 z" id="path32" style="fill:#ffffff;fill-opacity:1;stroke-width:0.1"/> <path d="m 2852.3867,2443.8097 c -20.6,7.7 -29.8,35.9 -18.7,57.6 3,6 7.6,10.7 16.2,16.7 4.3,3 7.6,5.8 7.3,6.2 -0.2,0.5 -3.9,1.4 -8.2,2.1 -19.3,3.2 -35.2,13 -47.8,29.5 l -6,7.8 2.5,1.6 c 1.4,0.9 6.7,5 12,9.2 17,13.5 34.6,33.7 47.1,54 2.8,4.6 5.3,8.6 5.5,8.7 0.1,0.2 4.2,-3 8.9,-7.2 10.5,-9.1 19.1,-15.4 29.3,-21.2 l 7.7,-4.3 -0.4,-8.2 c -0.2,-7 -0.8,-9.2 -4.2,-16.2 -4.9,-10.3 -8.7,-25 -9.5,-37.2 l -0.7,-9.4 -5,-2.1 c -2.7,-1.2 -8.8,-2.9 -13.6,-3.7 -4.7,-0.9 -9.2,-1.7 -9.8,-1.9 -2.8,-0.8 -0.9,-3.1 6.4,-7.9 8.7,-5.8 14.2,-12.1 17.5,-20.2 1.9,-4.8 2.3,-7.7 2.3,-16.9 0,-10.7 -0.1,-11.2 -3.8,-18.6 -4,-8.1 -9.7,-14.1 -16.3,-17.3 -5,-2.3 -14,-2.9 -18.7,-1.1 z" id="path34" style="fill:#ffffff;fill-opacity:1;stroke-width:0.1"/> <path d="m 3867.6867,2443.3097 c -10.2,3.1 -19.4,13.4 -22.6,25.3 -2,7.7 -1.8,19.4 0.6,26.9 2.7,8.7 8,15.3 17.8,22.3 4.6,3.2 7.9,6.2 7.5,6.6 -0.4,0.4 -3.9,1.3 -7.8,1.9 -3.8,0.7 -9.8,2.1 -13.2,3.2 -15.3,5 -33.4,21.6 -44.8,41.2 -2.5,4.4 -2.6,5 -1.2,6.4 1.4,1.4 1.8,1.4 4.4,-0.4 11.9,-8.5 39.7,-17.3 54.3,-17.3 h 3.6 l 1.3,-6.3 c 4.2,-20.2 12.6,-35.4 28.3,-51 l 9.9,-9.8 0.6,-7.7 c 1.7,-22.6 -13.2,-42.5 -31.6,-42.1 -2.5,0 -5.7,0.4 -7.1,0.8 z" id="path36" style="fill:#ffffff;fill-opacity:1;stroke-width:0.1"/> <path d="m 2572.0867,2445.4097 c -7.8,3.1 -13.8,8.9 -18.1,17.8 -3.7,7.5 -3.8,7.8 -3.7,19.2 0,9.5 0.4,12.5 2.2,17.1 2.9,7.3 8.5,13.6 17.8,20.1 4.1,2.8 7.4,5.5 7.4,5.8 0,0.4 -4.7,1.6 -10.4,2.8 -5.8,1.1 -12.9,3.1 -15.9,4.5 l -5.5,2.5 -0.7,7.3 c -0.3,4.1 -1.1,10 -1.6,13.3 -0.6,3.2 -0.9,5.9 -0.7,6.1 0.2,0.2 3.7,-0.3 7.8,-1 8.2,-1.5 43,-2 43,-0.7 0,0.5 2.4,1.4 5.3,2.1 2.8,0.8 8.3,2.4 12,3.7 l 6.9,2.3 7.2,-4.8 c 4,-2.6 8.7,-5.3 10.4,-6 1.8,-0.8 3.2,-1.8 3.2,-2.4 0,-1.8 -11.5,-12.4 -18.1,-16.7 -7.8,-5 -15,-7.7 -26.7,-9.9 -5.1,-1 -9.5,-2.1 -9.8,-2.4 -0.3,-0.3 3,-3 7.3,-6 12.2,-8.6 16.7,-14.3 19.9,-25.4 2.2,-7.6 1.5,-20.7 -1.6,-28.6 -6.5,-17.1 -23.4,-26.3 -37.6,-20.7 z" id="path38" style="fill:#ffffff;fill-opacity:1;stroke-width:0.1"/> <path d="m 3587.3867,2444.8097 c -12.7,4.7 -20.6,15.6 -23,31.8 -1.3,9 -0.2,16.9 3.6,25.2 3.2,7 8.4,12.6 16.8,18.3 3.8,2.5 6.9,4.8 6.9,5.2 0,0.3 -4.7,1.6 -10.5,2.8 -10.1,2 -23.3,7.2 -25.6,9.9 -0.8,1 0.2,3.5 4.1,10.3 6.5,11.5 12.3,25.7 16,39.4 2.7,10 3.4,11.4 10.1,20.2 3.9,5.2 7.3,9.5 7.4,9.5 0.1,0 3,-3.6 6.4,-8 8.4,-10.6 24.8,-26.3 34.6,-32.9 4.4,-3 8.4,-5.7 8.8,-6.1 0.4,-0.4 -0.1,-4 -1.2,-8.1 -1.2,-4 -2.4,-10.3 -2.7,-13.9 -0.4,-3.6 -1.1,-7.3 -1.5,-8.2 -1.5,-2.9 -16.7,-9.7 -25.4,-11.3 -12.1,-2.4 -12.5,-2.5 -12.5,-3.4 0,-0.4 2.6,-2.5 5.7,-4.7 12.8,-8.7 17.7,-15 20.8,-27.1 4.8,-18.3 -2.9,-38.7 -17.5,-46.7 -6.3,-3.4 -15.5,-4.4 -21.3,-2.2 z" id="path40" style="fill:#ffffff;fill-opacity:1;stroke-width:0.1"/> <path d="m 2059.6867,2446.7097 c -6.4,3.1 -12.7,9.8 -16.3,17.5 -3,6.3 -3.2,7.3 -3.2,18.2 0,15 2.1,20.5 11,29.6 3.4,3.5 7,6.4 8,6.4 1,0 4.6,-2.7 8,-5.9 8,-7.4 16.8,-13.7 26.8,-19.1 l 7.7,-4.2 v -6.6 c 0,-16.1 -7.2,-29.1 -19.2,-35.1 -7.7,-3.9 -15.9,-4.2 -22.8,-0.8 z" id="path42" style="fill:#ffffff;fill-opacity:1;stroke-width:0.1"/> <path d="m 1934.6867,2453.9097 c -9.8,2.9 -12.2,4 -18.7,8.9 -32.1,24.2 -38.3,76.2 -13,110.3 5,6.7 10.2,11.1 27.6,23.3 6.7,4.7 10.8,8.1 10,8.4 -0.8,0.3 -8.8,1.9 -17.9,3.6 -9.1,1.7 -19.2,4.1 -22.5,5.2 -7.7,2.5 -20,8.6 -27,13.2 l -5.5,3.7 4.6,8.9 c 7.9,15.8 13.1,32.3 15.7,50.1 l 1.4,9.6 6.8,8.4 c 24.7,30.3 39.6,67.5 43.8,109.7 l 1.2,12.2 6,-7.7 c 7.4,-9.6 35.3,-37.7 45.7,-46.1 9.2,-7.4 26.9,-19.5 35.6,-24.2 l 6.2,-3.5 -0.6,-20 c -0.5,-19 -0.7,-20.2 -3.3,-26.5 -7.8,-17.9 -11.5,-34.4 -13.3,-58.2 l -1.2,-16.7 -6,-3.3 c -14.7,-7.9 -22.3,-10.4 -43.6,-14.3 -8,-1.4 -15.4,-2.9 -16.4,-3.3 -1.5,-0.7 0.9,-2.7 12.8,-10.7 16.3,-11 21.8,-15.9 27.9,-24.9 9,-13.2 13,-27.6 13,-46.1 0,-17.9 -3.5,-29.9 -12.8,-44.5 -13,-20.3 -37.2,-31.2 -56.5,-25.5 z" id="path44" style="fill:#ffffff;fill-opacity:1;stroke-width:0.1"/> <path d="m 4188.2867,2453.5097 c -2.2,0.5 -7.2,2.5 -11,4.4 -31.7,15.2 -46.1,61.9 -30.6,98.8 1.7,4 3.4,7.8 3.9,8.6 1.1,1.7 5.1,0.5 5.1,-1.6 0,-1.4 2.1,-1.5 19.8,-1 10.8,0.4 21.5,0.9 23.7,1.3 10.1,1.5 24.7,6 33.7,10.5 l 5.7,2.9 3.1,-3.8 c 4.4,-5.2 11.6,-20.4 13.6,-28.7 1.3,-5 1.7,-11 1.7,-21 -0.1,-12.1 -0.5,-15.2 -2.8,-23 -4,-13.7 -8.7,-21.7 -18.5,-31.5 -9.2,-9.2 -16.9,-13.8 -26.8,-15.9 -6.2,-1.3 -15.1,-1.3 -20.6,0 z" id="path46" style="fill:#ffffff;fill-opacity:1;stroke-width:0.1"/> <path d="m 2968.6867,2463.0097 c -0.8,0.3 -4.4,1.7 -8,3.1 -9.6,3.8 -11.3,4.8 -17.9,10.9 -14.1,13 -22,31.7 -22.7,53.9 -0.9,29.9 10,51.8 34.3,68.8 4.5,3.1 8.5,5.7 8.8,5.7 0.3,0 2.1,-1.8 4.1,-3.9 4.2,-4.7 14.6,-13.3 22.9,-18.9 10.3,-6.9 24.2,-13.2 36,-16.1 4.9,-1.3 6.5,-4.4 8.9,-17.1 1.5,-8.2 1.6,-24.1 0.2,-30 -0.3,-1.4 -0.9,-4 -1.2,-5.9 -0.4,-1.9 -1.7,-6.1 -3,-9.4 -7,-17.8 -17.7,-30.2 -32,-36.8 -8,-3.8 -9.4,-4.2 -18.8,-4.5 -5.6,-0.2 -10.8,-0.1 -11.6,0.2 z" id="path48" style="fill:#ffffff;fill-opacity:1;stroke-width:0.1"/> <path d="m 3706.0867,2464.8097 c -9.1,3.3 -14.9,7.1 -21.5,13.8 -13.4,13.6 -20.9,33.2 -20.9,54.7 0,10.2 1.4,21.5 2.9,24 0.7,1 1.5,0.9 4.5,-0.3 6.9,-2.9 24.2,-6.6 35.6,-7.6 18,-1.6 37.7,-1.3 38.7,0.5 0.5,0.8 5.3,2.8 10.8,4.3 5.5,1.6 12.3,3.8 15.2,4.9 l 5.1,2 1.8,-6.1 c 2.6,-8.5 2.6,-33.3 0.1,-42.6 -6.3,-23 -23,-42.3 -41.5,-48 -9.1,-2.8 -22.6,-2.7 -30.8,0.4 z" id="path50" style="fill:#ffffff;fill-opacity:1;stroke-width:0.1"/> <path d="m 2446.5867,2466.3097 c -23.4,7.5 -40.5,31 -44,60.6 -1.4,12 0,25.1 4,36.9 5.8,17.3 14.3,27.5 34.4,41.6 7.5,5.2 13.6,10 13.6,10.6 0.1,0.6 -6.6,2.3 -15.6,3.9 -8.7,1.5 -19.4,3.9 -23.8,5.2 -7.3,2.3 -18.4,7.2 -21.1,9.4 -0.8,0.7 0.2,3.6 3.3,10 8.4,17.1 13.5,33.3 17.4,55.5 3.1,17.5 3.5,49.2 0.8,66.9 -4.7,31 -14.8,58 -30.8,82.3 -3.4,5.1 -6.1,9.7 -6.1,10.2 0,2.2 8.3,13.8 10.5,14.8 2.4,1.1 3.1,0.7 10.5,-6.2 19.5,-18.3 40.9,-33 63.7,-43.8 6,-2.8 11,-5.2 11.2,-5.4 0.2,-0.2 -1.9,-3.4 -4.6,-7.1 -27.2,-37.2 -37.5,-87.3 -27.7,-135.1 3.3,-16.5 14.3,-44.2 21.5,-54.3 1,-1.5 1.9,-3.4 1.9,-4.2 0,-3.4 25.8,-29.4 36.9,-37.2 4.5,-3.1 8.8,-7 9.6,-8.5 6.4,-12.4 9.2,-37.2 6,-52.9 -4.2,-20.4 -15.5,-38.1 -30.6,-47.7 -11.1,-7 -28.8,-9.4 -41,-5.5 z" id="path52" style="fill:#ffffff;fill-opacity:1;stroke-width:0.1"/> <path d="m 3192.3867,2465.9097 c -8.8,2.4 -16,6.8 -23.8,14.5 -15.2,15 -22.2,32.9 -22.1,56.5 0,14.8 2.3,24.2 8.7,37.2 6.2,12.3 12.6,19 29.4,30.8 12.1,8.5 16.4,12.5 13.4,12.5 -3.2,0 -32.8,6.1 -33.6,6.9 -0.7,0.7 -0.2,2.2 1.5,4.8 3.1,4.7 9.6,18.5 12.7,27 1.3,3.5 2.7,6.3 3.2,6.3 0.5,0 4.1,-1.3 8.1,-2.9 4,-1.5 10.3,-3.6 14.1,-4.6 5.4,-1.5 6.7,-2.2 6.7,-3.8 0,-2 0.5,-2 22.3,-1.4 30.7,0.8 44.5,3.4 66,12.7 4.8,2.1 8.7,3.4 8.7,3 0,-1.9 -19.3,-18.7 -28,-24.5 -17.9,-11.8 -28.5,-15.8 -54.4,-20.2 -8.8,-1.6 -16.1,-3.3 -16.2,-3.8 -0.2,-0.6 5.1,-4.6 11.8,-9 6.6,-4.4 14.2,-9.7 16.9,-11.8 9.6,-7.6 19.7,-24.2 23.4,-38.6 3.9,-15.3 2.7,-37.2 -3,-51.7 -6,-15.2 -18.3,-29.7 -30.3,-35.8 -10.9,-5.5 -24.6,-7.1 -35.5,-4.1 z" id="path54" style="fill:#ffffff;fill-opacity:1;stroke-width:0.1"/> <path d="m 1755.4867,2507.1097 c 10.1,11.6 18.2,27.5 22.3,43.8 1,3.8 1.8,6.3 1.8,5.4 0.1,-1.3 1.8,-2 6.6,-2.8 6.4,-1.1 8.5,-0.9 8.5,0.9 0,0.5 0.5,2.1 1,3.5 l 1,2.7 4,-5.8 3.9,-5.8 -3.2,-5.9 c -7,-12.9 -19.6,-26.4 -31.7,-33.9 -5.8,-3.6 -15.3,-7.8 -17.7,-7.8 -0.8,0 0.6,2.4 3.5,5.7 z" id="path56" style="fill:#ffffff;fill-opacity:1;stroke-width:0.1"/> <path d="m 2227.2867,2508.1097 c 9,7.6 20.9,20.8 27.2,30.3 6.3,9.6 7.6,11 10.9,11 3.3,0 3,-2.1 -2.3,-12.9 -6.1,-12.4 -16.3,-23 -27.4,-28.4 -4.1,-2 -9.1,-3.9 -11,-4.3 -3.4,-0.6 -3.3,-0.6 2.6,4.3 z" id="path58" style="fill:#ffffff;fill-opacity:1;stroke-width:0.1"/> <path d="m 1681.6867,2507.7097 c -9.3,3.2 -15.6,7.1 -22.7,14.3 -14.8,15 -22.2,36 -21,59.6 0.6,12.9 3,22.6 8.2,32.8 3.5,7 5.6,9.3 6.3,7.1 0.8,-2.5 12.1,-15.8 19.3,-22.8 15.7,-15.3 33.4,-25.9 52.8,-31.4 3.6,-1 6.9,-2.5 7.3,-3.3 0.6,-1 3.4,-1.4 11,-1.5 5.6,-0.1 10.4,-0.4 10.6,-0.6 1,-0.9 -6.1,-20.6 -9.5,-26.5 -5,-8.5 -16.2,-19.7 -23.8,-23.7 -13,-6.8 -26.4,-8.2 -38.5,-4 z" id="path60" style="fill:#ffffff;fill-opacity:1;stroke-width:0.1"/> <path d="m 3937.2867,2506.9097 c -18.9,5.2 -35.3,22.3 -42.1,43.8 -3,9.4 -3.1,10.7 -0.5,10.7 3.9,0 20.8,6.1 30.1,10.8 21.8,11.1 41.1,29.5 54.5,51.9 3,5.1 5.9,9.3 6.4,9.3 1.8,0 10.3,-11.9 14.1,-19.7 6.9,-14.1 9.6,-34.1 6.9,-51.3 -4.3,-26.8 -23,-49.6 -45.5,-55.5 -7.1,-1.8 -17.2,-1.8 -23.9,0 z" id="path62" style="fill:#ffffff;fill-opacity:1;stroke-width:0.1"/> <path d="m 2131.8867,2522.4097 c -33.3,8.7 -59.3,37.5 -69.6,77 -1.4,5.2 -2.8,12 -3.3,15 -1,6.9 -1,29.9 -0.1,36.5 2.9,20.3 9.8,38.7 19.9,53.7 4.7,6.9 14.7,18.8 15.8,18.8 0.5,0 1.2,-3.9 1.7,-8.8 0.4,-4.8 0.9,-9.2 0.9,-9.7 0.7,-5.9 3.2,-18 5.6,-26.6 9,-32.4 24.5,-60.2 46.3,-82.7 16.5,-17.2 40.5,-32.8 59.8,-38.9 3.3,-1 5.8,-2.4 5.8,-3.2 0,-2 -12.6,-14.1 -19.5,-18.8 -8.3,-5.5 -18.4,-10.1 -27.4,-12.4 -10.2,-2.5 -25.9,-2.5 -35.9,0.1 z" id="path66" style="fill:#ffffff;fill-opacity:1;stroke-width:0.1"/> <path d="m 3431.0867,2522.4097 c -36,9.3 -64.3,43.7 -71.8,87 -3.4,19.9 -3,35.6 1.5,55 5.3,23.1 18.8,46.8 33.9,59.8 2.8,2.4 10.8,8.3 17.8,13.2 7,4.9 16.4,11.5 21,14.7 4.5,3.2 8.2,6.3 8.2,6.9 0,1.2 -4.9,2.6 -16,4.4 -10.4,1.8 -32.4,6 -32.8,6.4 -0.2,0.2 0.8,4.6 2.2,9.7 6.5,24.2 9.1,55.6 6.6,79.2 -4.1,38.1 -17,72.2 -38.2,101 -2.8,3.7 -4.9,7 -4.7,7.2 0.3,0.2 4.2,2 8.9,4 19.5,8.4 47.6,25.5 65.7,40.1 l 3.1,2.5 8.8,-13.3 c 18.2,-27.4 32.8,-45.4 54.9,-67.3 28,-27.9 53.7,-46.5 85.2,-61.7 7.9,-3.8 14.3,-7.2 14.3,-7.4 0,-0.3 -2,-3.1 -4.3,-6.2 -10,-13.1 -19.9,-31.6 -26.2,-48.7 -2.1,-5.9 -4.6,-10.9 -6,-12.2 -4.2,-3.8 -22.1,-13.4 -33.6,-18 -13.4,-5.3 -25.2,-8.4 -45.9,-11.8 -1.9,-0.3 -5.1,-1 -7,-1.4 -1.9,-0.5 -7.2,-1.5 -11.8,-2.2 -14,-2.2 -14.4,-1.6 11.4,-19 24.4,-16.4 34.1,-24.8 42.7,-37.1 15,-21.2 23.7,-51.9 22.4,-78.8 -2.3,-46.1 -25.8,-85.5 -60.4,-101.2 -15.2,-6.8 -34.7,-8.7 -49.9,-4.8 z" id="path68" style="fill:#ffffff;fill-opacity:1;stroke-width:0.1"/> <path d="m 1850.1867,2530.7097 c -8,3 -14.4,7.4 -23.3,16.1 -7.8,7.5 -13.1,14.1 -17.6,21.8 l -2.7,4.7 7.2,3.5 c 4,2 8.2,3.6 9.3,3.6 4.6,0 6.6,1.2 6.6,3.9 0.1,1.9 1.3,3.6 4.6,6.1 2.5,1.9 7.7,6.8 11.7,10.9 5.8,5.9 7.4,7.1 8.7,6.2 4.1,-2.9 18.1,-11 23.3,-13.5 l 5.8,-2.7 -3,-3.8 c -8.2,-10.3 -16.2,-29.9 -18.1,-44.4 -2,-15.1 -1.9,-14.7 -4.3,-14.6 -1.2,0 -4.9,1 -8.2,2.2 z" id="path70" style="fill:#ffffff;fill-opacity:1;stroke-width:0.1"/> <path d="m 2040.7867,2533.0097 c -9.5,4.4 -10.7,5.6 -12,12.6 -1.7,8.8 -6.7,23.3 -10.2,29.7 -1.6,3 -2.7,5.6 -2.5,5.9 0.3,0.2 2.1,0.7 4.1,1.2 2.5,0.6 3.8,0.5 4,-0.3 5.7,-17.3 14.4,-35.3 22.1,-45.8 1.9,-2.6 3.4,-4.9 3.4,-5.3 0,-1.2 -3.6,-0.4 -8.9,2 z" id="path72" style="fill:#ffffff;fill-opacity:1;stroke-width:0.1"/> <path d="m 2243.6867,2598.3097 c -10.1,1.5 -18.4,4.2 -28.5,9.1 -53.1,26 -82,96.3 -67.4,163.7 5.9,27.1 20,53.7 37.9,71.4 7.1,7 13.2,11.7 38,28.9 20,13.9 24.6,17.3 23.4,17.7 -0.5,0.1 -15.3,3 -32.9,6.3 -36.4,6.9 -51.6,11.4 -71,21 -42.9,21.1 -84.1,59.5 -117.3,109.2 -3.8,5.7 -8.5,13.1 -10.6,16.6 l -3.8,6.3 3.1,3.7 c 5.7,6.7 22.6,27.7 24.2,29.9 1.3,1.9 4.2,2.7 23.5,5.8 12,2 23,3.9 24.3,4.2 l 2.3,0.6 -0.7,31.8 -0.7,31.9 h 169.7 169.8 l -0.7,-16.8 c -0.7,-19.8 -1,-46.2 -0.4,-46.7 0.2,-0.3 9.6,-2 20.9,-4 11.2,-1.9 21.5,-3.7 22.9,-4 2.5,-0.5 2.7,-0.1 8,15 3,8.5 5.7,15.5 6,15.5 0.3,0 1.4,-1.5 2.4,-3.3 3.1,-5.1 19.6,-29.7 23.7,-35.2 l 3.8,-5 -5.1,-9.5 c -34.8,-64.7 -85.2,-117.2 -137.8,-143.5 -23.4,-11.8 -31.9,-14.2 -80.9,-23.5 -14.6,-2.8 -26.6,-5.2 -26.8,-5.4 -0.2,-0.1 11.9,-8.6 26.9,-18.7 29.9,-20.2 41,-29.6 51.1,-43.7 40.4,-56.1 37.1,-141.8 -7.6,-193 -14.6,-16.8 -33.7,-29 -53.2,-34.1 -9,-2.4 -27.6,-3.5 -36.5,-2.2 z" id="path74" style="fill:#ffffff;fill-opacity:1;stroke-width:0.1"/> <path d="m 3704.1867,2598.8097 c -40.5,6.6 -75.4,39.4 -89.9,84.6 -6.5,20.1 -7.9,29.2 -8,51.5 0,16.9 0.3,21.7 2.2,31.3 6.3,31.4 19.6,57 39.6,76.7 5.4,5.3 17.2,14.3 34.4,26.3 25,17.5 28.5,20.2 26.4,20.2 -4.7,0 -67,12.9 -75.4,15.6 -55.3,17.9 -105.3,59.6 -147.3,122.9 -4.4,6.7 -9.1,14.2 -10.4,16.7 l -2.5,4.5 6.2,6.9 c 3.4,3.8 9.8,11.6 14.3,17.4 l 8.2,10.5 23.6,4 23.6,4 0.3,32.2 0.2,32.3 h 169.1 169.1 l -0.7,-31.9 -0.8,-31.8 2.4,-0.6 c 9.6,-2.2 44.3,-7.7 44.9,-7 0.4,0.4 2.8,6.9 5.5,14.3 2.6,7.4 5,14.1 5.2,14.7 0.3,0.7 5.8,-6.7 12.4,-16.5 6.5,-9.7 13.3,-19.6 15,-21.9 l 3.1,-4.1 -8.2,-14.4 c -41.1,-72 -93.3,-122.4 -150.5,-145.3 -16.2,-6.5 -25.1,-8.8 -58.1,-15 -32.7,-6.2 -33.4,-6.3 -33.4,-7.3 0,-0.4 8.7,-6.5 19.3,-13.6 36.4,-24.5 42.7,-29.4 53,-41.8 14.7,-17.6 25.1,-40.2 30.8,-66.8 2,-9 2.3,-13.5 2.3,-31.5 0,-23.6 -1.4,-32.6 -8,-52.5 -14.7,-44 -46.7,-75.5 -84.8,-83.6 -10.1,-2.1 -23.8,-2.6 -33.1,-1 z" id="path76" style="fill:#ffffff;fill-opacity:1;stroke-width:0.1"/> <path d="m 2556.0867,2600.8097 c -28.8,6.6 -52.6,27.7 -66.2,58.8 -20.8,47.3 -11.3,105.6 22.7,139.8 4.9,4.8 15.3,12.9 29.1,22.5 11.8,8.3 21.5,15.7 21.5,16.5 0,1 -2.3,1.8 -7.5,2.7 -32.1,5.6 -48.1,9.1 -57.7,12.4 -12.2,4.2 -29.6,13 -41.1,20.7 -8.4,5.6 -12.9,9 -25.8,19.8 l -2.5,2 8.8,6.6 c 27.9,20.8 57.2,51 80.4,82.8 7.7,10.6 28.2,42.4 29.1,45.2 0.3,0.7 4.1,-2.3 8.9,-6.9 24.3,-23.4 48.4,-40.5 77.6,-55 l 17.2,-8.5 -4.8,-6.2 c -18.2,-23.2 -32.4,-58.5 -36.7,-91.1 -2.3,-17.8 -1.7,-16.8 -9.9,-18.2 -3.9,-0.6 -8.6,-1.4 -10.5,-1.8 -1.9,-0.3 -5.3,-0.9 -7.5,-1.3 -2.6,-0.5 -4,-1.3 -4,-2.2 0,-0.8 6.5,-5.9 14.5,-11.2 16.4,-11.1 14.9,-8.7 17.5,-27.8 5.1,-38.5 22.8,-77.4 47.4,-104.2 l 5.2,-5.6 -2,-8.9 c -8.4,-38.5 -34.2,-68.7 -67.6,-79.3 -8.9,-2.8 -27.1,-3.6 -36.1,-1.6 z" id="path78" style="fill:#ffffff;fill-opacity:1;stroke-width:0.1"/> <path d="m 3854.4867,2600.8097 c -6.7,1.5 -17.8,5.6 -17.8,6.5 0,0.4 1.8,3.2 4.1,6.2 23.7,31.5 37.1,71.1 38.6,115 1.2,33.6 -5.3,67 -18.3,94.9 l -4.5,9.4 3.1,2.4 c 1.6,1.3 3,2.7 3,3.2 0,0.5 -2.4,1.4 -5.4,2 -5.3,1.1 -5.6,1.3 -10,8.3 -2.5,4 -6.3,9.4 -8.4,12.2 l -3.9,5 17.6,8.6 c 57.4,28.3 106.1,75.6 148.2,143.6 l 7.9,12.8 v -12.1 c 0,-8.8 0.3,-12.3 1.3,-12.7 0.6,-0.2 8.6,-1.7 17.7,-3.3 l 16.5,-2.8 7.5,-5.3 c 4.1,-2.9 11.2,-7.6 15.8,-10.4 l 8.2,-5.2 -2.7,-4.6 c -35.3,-61 -82.1,-103.8 -131,-120 -9.2,-3.1 -16.4,-4.7 -47.2,-10.6 -10.1,-1.9 -18.7,-3.7 -19,-4.1 -0.8,-0.7 1.2,-2.2 24.7,-18 13.7,-9.2 22.7,-16.1 28,-21.3 15.9,-15.7 26.2,-35.6 31.9,-61.4 1.4,-6.3 1.8,-12.6 1.8,-26.7 0,-15.9 -0.4,-19.9 -2.4,-28.5 -4.5,-19.2 -11.3,-34.2 -21.5,-47.8 -18,-23.9 -42,-36.9 -68,-36.6 -5.6,0.1 -12.6,0.7 -15.8,1.3 z" id="path80" style="fill:#ffffff;fill-opacity:1;stroke-width:0.1"/> <path d="m 1747.8867,2603.5097 c -32.3,4.2 -61.2,29.5 -74.8,65.5 -4,10.6 -9.3,34.4 -7.6,34.4 0.2,0 4.2,-3.8 8.9,-8.5 10.5,-10.5 22.6,-19.7 34.7,-26.4 9.2,-5.1 26,-11.9 34.8,-14.1 2.8,-0.7 4.8,-1.9 5,-2.8 0.4,-1.6 2.9,-1.6 26.9,-1.1 25.4,0.6 26.8,0.7 37.9,3.7 6.3,1.7 14.4,4.2 17.9,5.6 3.6,1.5 6.7,2.6 6.9,2.6 0.9,0 -8.5,-16.4 -12.4,-21.7 -16,-21.3 -37,-34.3 -60.4,-37.2 -9.2,-1.2 -8.8,-1.2 -17.8,0 z" id="path82" style="fill:#ffffff;fill-opacity:1;stroke-width:0.1"/> <path d="m 3046.6867,2603.4097 c -16.8,2.2 -33.4,10.6 -47.3,23.9 -24.2,23.3 -37.3,58.9 -35.4,96.2 1.5,26.6 9.3,49.5 23.8,68.9 8.3,11.1 17.2,18.9 40.2,34.9 11.4,7.9 20.7,14.7 20.7,15.1 0,0.3 -4.4,1.4 -9.7,2.4 -47.7,8.9 -59.3,12 -77.9,21.2 -12.4,6.1 -29.8,17.2 -36,23 -3.5,3.3 -4.7,5.6 -7.9,14.9 -6.6,19.5 -17.6,39.2 -31.7,57.2 -0.6,0.8 2.9,3 12.4,7.5 34.3,16.5 62,36.6 91.1,66.1 l 15.7,16 13.3,-13.3 c 17,-17.2 34.5,-31.7 52.9,-44 13.3,-8.8 37.6,-22 48.6,-26.3 l 4.3,-1.7 -2.9,-3.8 c -21.8,-27.6 -37.3,-67.9 -39.9,-103.9 -0.3,-4.5 -0.9,-8.6 -1.3,-9.2 -0.3,-0.6 -4.2,-1.8 -8.5,-2.6 -4.3,-0.9 -8.1,-1.8 -8.4,-2.1 -0.7,-0.7 3.6,-4.2 11.1,-9.2 l 5.7,-3.7 0.6,-6.5 c 2.9,-33.2 8,-53.5 19.4,-77.5 10.4,-21.6 23.2,-39.7 38.5,-54.3 l 7.5,-7.1 -1.9,-6.9 c -9.5,-34.2 -34.8,-62.6 -64,-72 -11.9,-3.9 -21.2,-4.8 -33,-3.2 z" id="path84" style="fill:#ffffff;fill-opacity:1;stroke-width:0.1"/> <path d="m 4166.5867,2604.8097 c -38.1,8 -67.2,42.3 -75.6,88.9 -1.7,9.7 -2.3,34 -0.9,39.1 0.7,2.9 0.7,2.9 4.3,-3.4 16.5,-29.8 41.7,-54.5 70.4,-69 8.6,-4.4 24.8,-10.2 32.9,-11.9 3,-0.6 6.6,-1.4 8,-1.8 1.4,-0.3 12.3,-0.8 24.3,-1 13.2,-0.3 21.7,-0.9 21.7,-1.5 0,-0.5 -2.7,-4.3 -6,-8.3 -11.6,-14.1 -28.2,-25.3 -44.5,-29.7 -9.1,-2.5 -25.9,-3.2 -34.6,-1.4 z" id="path86" style="fill:#ffffff;fill-opacity:1;stroke-width:0.1"/> <path d="m 2943.1867,2620.4097 c -11.4,2.6 -13.6,3.4 -24.9,9 -18.9,9.4 -40.1,27.8 -53.2,46.2 l -2.5,3.5 9.7,9.4 c 10.7,10.5 16.4,17.4 24.8,29.9 19.6,29.2 32.6,72.2 32.6,107.6 v 10.4 l 7.3,-3.8 c 3.9,-2 10.5,-5.3 14.5,-7.1 7.1,-3.2 7.3,-3.4 5.8,-5.5 -12.1,-17 -19.1,-30.1 -24.6,-46.3 -6.3,-18.6 -8,-28.9 -8.7,-50.5 -0.8,-26.1 1.7,-44 8.9,-64.8 3.4,-9.8 12.1,-27.7 16.7,-34.3 1.7,-2.5 3.1,-4.8 3.1,-5.1 0,-0.7 0.1,-0.8 -9.5,1.4 z" id="path88" style="fill:#ffffff;fill-opacity:1;stroke-width:0.1"/> <path d="m 3998.4867,2668.9097 c -0.2,0.3 0.5,4.4 1.5,9.2 1.7,7.4 2,12.9 2.1,33.8 0.1,22.6 -0.1,26.1 -2.2,36 -5.4,25.3 -16.8,51 -30,67.3 -1.9,2.4 -3.2,4.5 -2.9,4.8 0.3,0.3 4.7,2.5 9.9,4.8 13.8,6.2 34.4,18.8 46.9,28.7 l 2.7,2.1 7.1,-5.3 c 7.2,-5.4 7.2,-5.4 6.7,-9.4 -0.5,-4 -2.1,-35.8 -3,-61.5 -0.3,-7.5 -0.2,-14.1 0.3,-14.8 0.4,-0.6 3.9,-1.8 7.9,-2.5 4,-0.8 7.4,-1.6 7.7,-1.8 0.2,-0.3 -0.5,-4.7 -1.6,-9.9 -1.5,-6.9 -2.2,-14.8 -2.6,-28.5 l -0.5,-19 -5.2,-5.3 c -5.5,-5.8 -16.1,-14.1 -24.2,-19 -5.9,-3.7 -20,-10.2 -20.6,-9.7 z" id="path94" style="fill:#ffffff;fill-opacity:1;stroke-width:0.1"/> <path d="m 2748.6867,2696.3097 c -10.9,2.4 -15.7,4.2 -25,9.2 -26.9,14.6 -47.9,40.6 -58.9,73.4 -6.9,20.5 -8.4,30.1 -8.5,52.5 0,20.8 0.9,28.1 6,45.7 4.8,16.9 9.9,28 19.2,41.9 12,17.8 19.2,24.3 56,49.8 11.7,8.2 21.1,15.3 20.9,16 -0.3,1.1 -3.9,1.9 -32.2,7.1 -29.6,5.5 -35.2,6.8 -46.1,10.6 -52.1,18 -100.3,58 -139.7,115.9 -9.3,13.7 -22.7,35.7 -22.7,37.2 0,0.4 93.8,0.8 208.3,0.8 h 208.4 l 6.8,-12.8 c 7.9,-14.9 19.7,-34.5 27.2,-45.4 l 5.3,-7.8 -7.2,-8.2 c -41.1,-46.6 -90.6,-77 -138.9,-85.4 -5.2,-0.9 -9.6,-1.7 -9.9,-1.9 -0.3,-0.2 -2.7,-0.6 -5.5,-1 -11.3,-1.5 -37,-7.1 -36.9,-8 0.1,-0.6 12.3,-9.2 27,-19.1 21.3,-14.4 28.9,-20.1 36.4,-27.5 53.7,-52.7 56.4,-150.6 5.8,-208.7 -12.9,-14.9 -32,-27.3 -50.3,-32.8 -12.3,-3.6 -32.8,-4.3 -45.5,-1.5 z" id="path98" style="fill:#ffffff;fill-opacity:1;stroke-width:0.1"/> <path d="m 4210.6867,2696.3097 c -19.6,4.4 -29.1,9.5 -50.3,27.1 -3.5,2.8 -14.4,16.5 -19.2,23.8 -10.2,15.8 -18,36.8 -21.6,58.1 -1.8,10.9 -2,15.1 -1.6,31.1 0.6,19.7 2.3,30.3 7.2,46 3.2,10 12.5,29.1 18,37 6.2,8.9 7.2,10.1 15.8,18.8 7.5,7.6 13.1,11.8 51.6,38.7 4.7,3.4 8.7,6.7 8.9,7.5 0.2,1.2 -5.2,2.5 -26,6.3 -41.7,7.7 -57.4,12.4 -78.8,23.3 -26.6,13.7 -44.7,27 -68.1,50.4 -19.7,19.6 -34.3,37.8 -51,63.5 -6.7,10.3 -16.9,27.2 -16.9,28 0,0.3 104.4,0.5 232,0.5 h 232 v -28.6 -28.5 l -11.4,-13.3 c -37.3,-43.3 -81.3,-73.3 -124.9,-85.1 -7.5,-2 -66.1,-13.5 -68.9,-13.5 -2.3,0 -0.1,-2.9 4.5,-6 2.8,-2 14.9,-10.1 26.7,-18 32.2,-21.7 45.4,-35.6 58,-61.5 12.9,-26.4 18.4,-59.6 14.6,-88.5 -4.7,-34.9 -17,-62.9 -37.5,-85.2 -13.3,-14.5 -32.7,-26.4 -50.1,-30.8 -12.3,-3.2 -31.6,-3.6 -43,-1.1 z" id="path100" style="fill:#ffffff;fill-opacity:1;stroke-width:0.1"/> <path d="m 1766.7867,2699.4097 c -14.2,2 -29.9,8.3 -42.8,17.2 -55.9,38.6 -74.2,127.5 -39.7,193.8 11.5,22.2 24.1,35.6 50.9,54.4 9.4,6.6 20.8,14.6 25.5,17.9 4.7,3.3 8.7,6.1 8.9,6.3 0.9,0.8 -0.8,1.5 -6,2.4 -30.2,5.1 -60.8,11.6 -72.7,15.6 -24.6,8 -50.5,22.3 -73,40.1 -18.5,14.6 -46.2,43.6 -59.2,62.1 -2.4,3.4 -4.8,6.2 -5.2,6.2 -0.4,0 -0.8,9.2 -0.8,20.5 v 20.5 h 238.5 238.5 l -5.5,-9.1 c -34.6,-56.9 -75.3,-98.4 -121,-123.1 -21.6,-11.7 -39.9,-18.1 -67.1,-23.3 -48.2,-9.3 -50.5,-9.8 -49.3,-10.9 0.2,-0.2 11,-7.5 23.9,-16.2 28.7,-19.2 30.7,-20.8 39.3,-29.2 37.9,-37.1 51.7,-98.5 35.2,-155.7 -13,-44.7 -47.2,-79.8 -86,-88.1 -8.9,-1.9 -24.1,-2.5 -32.4,-1.4 z" id="path102" style="fill:#ffffff;fill-opacity:1;stroke-width:0.1"/> <path d="m 3230.1867,2699.4097 c -47.1,5.1 -87,47.6 -98.7,105.3 -2,9.7 -2.3,14.1 -2.2,32.7 0,18.4 0.3,23 2.3,32 6.4,29.9 18.1,52.7 36.9,72.2 7.7,8 14.2,13.1 36.3,28.5 14.8,10.3 26.9,19.1 26.9,19.5 0,0.9 1.9,0.5 -32,6.8 -15.1,2.8 -31.6,6.2 -36.7,7.5 -57.1,15.1 -111.2,57.9 -154.3,122 -7,10.4 -18,28.5 -18,29.6 0,0.5 108.6,0.9 250.1,0.9 h 250.1 l -2.3,-3.8 c -21.4,-35.4 -38.9,-58.3 -61.9,-81.2 -32.7,-32.6 -68.8,-54.7 -106.5,-65.3 -7.2,-2 -38.9,-8.3 -67.9,-13.5 -2.2,-0.4 -4.1,-1.2 -4.2,-1.7 -0.2,-0.6 10.8,-8.4 24.3,-17.5 36.5,-24.5 43.6,-30.8 56,-49.7 16.8,-25.6 24.6,-53.2 24.7,-86.3 0.1,-30.5 -6.1,-55.4 -19.5,-79 -19.2,-34 -48.2,-54.7 -82.3,-59 -8.8,-1.1 -10.7,-1.1 -21.1,0 z" id="path104" style="fill:#ffffff;fill-opacity:1;stroke-width:0.1"/> <path d="m 2088.1867,2770.8097 c -49.7,13.8 -95,50.9 -131.8,108 l -7.6,11.9 7.2,8.6 c 4,4.7 9.4,11.4 12.1,14.7 4.6,6 4.9,6.2 10.4,6.8 5.4,0.7 26.2,4.1 30.9,5.1 2.2,0.5 2.3,0.8 2.5,18.1 l 0.3,17.6 8.2,-9.3 c 9.6,-11.1 28.8,-30.1 39.3,-39.1 23.9,-20.2 50.1,-36.6 75.8,-47.4 l 3.4,-1.4 -3.2,-4.2 c -17.5,-23.3 -30.7,-52.6 -36.1,-80.6 -1.2,-6.1 -2.5,-11.2 -2.8,-11.1 -0.3,0 -4.2,1 -8.6,2.3 z" id="path106" style="fill:#ffffff;fill-opacity:1;stroke-width:0.1"/> <path d="m 4064.3867,2878.9097 c -3.7,2.5 -6.7,4.8 -6.7,5.1 0,0.3 2.8,3.6 6.1,7.2 3.4,3.7 9.5,11.1 13.7,16.5 4.1,5.3 7.7,9.5 7.9,9.3 0.3,-0.2 -0.4,-2.1 -1.5,-4.3 -2.5,-4.9 -8.7,-24 -10.3,-32.1 -0.7,-3.4 -1.6,-6.2 -1.9,-6.2 -0.3,0 -3.6,2 -7.3,4.5 z" id="path110" style="fill:#ffffff;stroke-width:0.1"/> <path d="m 1918.2867,2932.6097 c -5.4,10.4 -11.8,20.6 -18.2,28.9 l -4.3,5.6 5.7,2.3 c 20.8,8.5 47.2,24.1 67.8,40.2 l 6.1,4.7 1.4,-2.5 c 1.3,-2.5 0.9,-3.5 -5.9,-16.8 -12.6,-24.6 -31.1,-52.4 -47.2,-70.9 -0.4,-0.4 -2.8,3.4 -5.4,8.5 z" id="path114" style="fill:#ffffff;fill-opacity:1;stroke-width:0.1"/> </g> <g id="layer3" style="display:inline"/> <g id="layer6" style="display:inline"> <rect style="opacity:1;vector-effect:none;fill:#ffffff;fill-opacity:1;fill-rule:evenodd;stroke:#3366cc;stroke-width:2.45196843;stroke-linecap:round;stroke-linejoin:miter;stroke-miterlimit:4;stroke-dasharray:2.45196847, 9.80787388000000071;stroke-dashoffset:0;stroke-opacity:1;paint-order:normal" id="rect1002" width="2273.9854" height="1467.8899" x="1831.1306" y="850.25653"/> </g> <g id="layer7"> <rect style="opacity:1;vector-effect:none;fill:#ffffff;fill-opacity:1;fill-rule:evenodd;stroke:#3366cc;stroke-width:2.45196843;stroke-linecap:round;stroke-linejoin:miter;stroke-miterlimit:4;stroke-dasharray:2.45196847, 9.80787388;stroke-dashoffset:0;stroke-opacity:1;paint-order:normal" id="rect1095" width="39.807182" height="1587.3114" x="4147.5918" y="770.64221"/> <rect y="771.66632" x="4212.1338" height="1587.3114" width="39.807182" id="rect1100" style="opacity:1;vector-effect:none;fill:#ffffff;fill-opacity:1;fill-rule:evenodd;stroke:#3366cc;stroke-width:2.45196843;stroke-linecap:round;stroke-linejoin:miter;stroke-miterlimit:4;stroke-dasharray:2.45196847, 9.80787388;stroke-dashoffset:0;stroke-opacity:1;paint-order:normal"/> <rect style="opacity:1;vector-effect:none;fill:#ffffff;fill-opacity:1;fill-rule:evenodd;stroke:#3366cc;stroke-width:2.45196843;stroke-linecap:round;stroke-linejoin:miter;stroke-miterlimit:4;stroke-dasharray:2.45196847, 9.80787388;stroke-dashoffset:0;stroke-opacity:1;paint-order:normal" id="rect1102" width="39.807182" height="1587.3114" x="4278.1338" y="771.66632"/> <rect y="775.61804" x="1620.9675" height="1587.3114" width="39.807182" id="rect1104" style="opacity:1;vector-effect:none;fill:#ffffff;fill-opacity:1;fill-rule:evenodd;stroke:#3366cc;stroke-width:2.45196843;stroke-linecap:round;stroke-linejoin:miter;stroke-miterlimit:4;stroke-dasharray:2.45196847, 9.80787388;stroke-dashoffset:0;stroke-opacity:1;paint-order:normal"/> <rect style="opacity:1;vector-effect:none;fill:#ffffff;fill-opacity:1;fill-rule:evenodd;stroke:#3366cc;stroke-width:2.45196843;stroke-linecap:round;stroke-linejoin:miter;stroke-miterlimit:4;stroke-dasharray:2.45196847, 9.80787388;stroke-dashoffset:0;stroke-opacity:1;paint-order:normal" id="rect1106" width="39.807182" height="1587.3114" x="1685.5095" y="776.64215"/> <rect y="776.64215" x="1751.5095" height="1587.3114" width="39.807182" id="rect1108" style="opacity:1;vector-effect:none;fill:#ffffff;fill-opacity:1;fill-rule:evenodd;stroke:#3366cc;stroke-width:2.45196843;stroke-linecap:round;stroke-linejoin:miter;stroke-miterlimit:4;stroke-dasharray:2.45196847, 9.80787388;stroke-dashoffset:0;stroke-opacity:1;paint-order:normal"/> </g> </svg>